<svg width="265" height="61" viewBox="0 0 265 61" fill="none" xmlns="http://www.w3.org/2000/svg">
<path fill-rule="evenodd" clip-rule="evenodd" d="M11.2856 50.1854C1.62931 49.8123 -3.88951 36.0396 7.91243 30.7386C-3.91248 25.4266 1.65702 11.6649 11.2854 11.2915C11.6592 1.62819 25.421 -3.89449 30.7179 7.91607C36.0262 -3.91817 49.7776 1.65638 50.1507 11.2915C59.8036 11.6645 65.3277 25.4365 53.5237 30.7382C65.3506 36.0503 59.778 49.8141 50.1482 50.1856C49.8573 56.9112 42.6238 62.6515 35.374 59.0708C34.2385 58.3966 32.1687 56.5109 30.6264 54.3112C25.0607 65.0581 11.6549 59.598 11.2856 50.1854ZM13.0609 48.9353C13.1071 49.055 13.1277 49.1831 13.1215 49.3113C12.6663 57.9646 25.7328 63.8483 29.7612 50.9069C28.3858 46.0687 28.332 39.6773 29.6007 31.8555C22.9605 32.9334 16.0962 33.262 10.5714 31.6959C-2.359 35.7277 3.4975 48.8037 12.1588 48.3479C12.2869 48.3416 12.4148 48.3623 12.5344 48.4085C12.6541 48.4547 12.7627 48.5255 12.8534 48.6162C12.944 48.7069 13.0147 48.8156 13.0609 48.9353ZM48.3745 12.542C48.3284 12.4221 48.308 12.2939 48.3146 12.1657C48.7706 3.49442 35.7016 -2.35805 31.6745 10.5766C33.0481 15.4161 33.1029 21.8051 31.8356 29.6201C39.6264 28.3555 46.0178 28.4097 50.8631 29.7815C63.8177 25.7434 57.9162 12.6738 49.2773 13.1291C49.1491 13.1357 49.021 13.1153 48.9012 13.0692C48.7814 13.0231 48.6727 12.9523 48.5819 12.8615C48.4912 12.7707 48.4205 12.6619 48.3745 12.542ZM49.2774 48.348C57.9523 48.8033 63.9049 35.5666 50.6225 31.6199C45.8873 30.2107 39.4636 30.1803 31.5104 31.5312C30.0138 40.3711 30.2396 47.5406 32.1687 52.2951C36.6616 63.3688 48.7551 57.6825 48.3147 49.3114C48.3079 49.1831 48.3282 49.0548 48.3742 48.9349C48.4202 48.815 48.4909 48.706 48.5817 48.6152C48.6725 48.5244 48.7813 48.4536 48.9011 48.4076C49.021 48.3616 49.1492 48.3413 49.2774 48.348ZM12.5349 13.0692C12.4151 13.1153 12.287 13.1356 12.1588 13.129C0.440406 12.5098 -5.56457 35.9746 29.9258 29.9457C35.9505 -5.64227 12.5063 0.470747 13.1215 12.1656C13.1281 12.2938 13.1078 12.4221 13.0618 12.542C13.0158 12.6619 12.9451 12.7708 12.8543 12.8616C12.7636 12.9524 12.6548 13.0232 12.5349 13.0692Z" fill="#64BA92" stroke="#64BA92" stroke-width="0.5"/>
<path d="M89.2759 28.3054C87.1483 28.3054 85.4734 27.7849 84.2512 26.7437C83.029 25.7025 82.3801 24.171 82.3047 22.149C82.2896 21.7114 82.2821 21.0626 82.2821 20.2025C82.2821 19.3273 82.2896 18.671 82.3047 18.2334C82.3801 16.2416 83.0365 14.71 84.2738 13.6387C85.5262 12.5523 87.1936 12.0091 89.2759 12.0091C91.3582 12.0091 93.0256 12.5523 94.278 13.6387C95.5304 14.71 96.1868 16.2416 96.2471 18.2334C96.2773 19.1085 96.2924 19.7649 96.2924 20.2025C96.2924 20.625 96.2773 21.2739 96.2471 22.149C96.1717 24.171 95.5229 25.7025 94.3006 26.7437C93.0784 27.7849 91.4035 28.3054 89.2759 28.3054ZM89.2759 25.0462C90.1058 25.0462 90.7622 24.7972 91.2451 24.2992C91.743 23.8013 92.0071 23.0393 92.0372 22.0132C92.0674 21.138 92.0825 20.5194 92.0825 20.1572C92.0825 19.7649 92.0674 19.1463 92.0372 18.3013C92.0071 17.2752 91.743 16.5132 91.2451 16.0153C90.7471 15.5173 90.0907 15.2683 89.2759 15.2683C88.4611 15.2683 87.8047 15.5173 87.3068 16.0153C86.8239 16.5132 86.5599 17.2752 86.5146 18.3013C86.4995 18.7238 86.492 19.3424 86.492 20.1572C86.492 20.957 86.4995 21.5756 86.5146 22.0132C86.5599 23.0393 86.8239 23.8013 87.3068 24.2992C87.7896 24.7972 88.446 25.0462 89.2759 25.0462ZM99.2329 28.0791C99.0669 28.0791 98.9311 28.0263 98.8255 27.9207C98.7198 27.815 98.667 27.6792 98.667 27.5133V16.8753C98.667 16.7094 98.7198 16.5736 98.8255 16.4679C98.9311 16.3623 99.0669 16.3095 99.2329 16.3095H101.836C102.002 16.3095 102.138 16.3623 102.243 16.4679C102.364 16.5736 102.424 16.7094 102.424 16.8753V17.7354C102.832 17.2375 103.352 16.8376 103.986 16.5358C104.635 16.234 105.367 16.0832 106.181 16.0832C107.509 16.0832 108.588 16.5358 109.418 17.4412C110.248 18.3315 110.663 19.5839 110.663 21.1984V27.5133C110.663 27.6641 110.61 27.8 110.505 27.9207C110.399 28.0263 110.263 28.0791 110.097 28.0791H107.245C107.094 28.0791 106.959 28.0263 106.838 27.9207C106.732 27.8 106.679 27.6641 106.679 27.5133V21.3342C106.679 20.625 106.506 20.0818 106.159 19.7046C105.812 19.3123 105.314 19.1161 104.665 19.1161C104.031 19.1161 103.533 19.3123 103.171 19.7046C102.809 20.0818 102.628 20.625 102.628 21.3342V27.5133C102.628 27.6641 102.575 27.8 102.47 27.9207C102.364 28.0263 102.228 28.0791 102.062 28.0791H99.2329ZM118.595 28.0791C118.445 28.0791 118.309 28.0263 118.188 27.9207C118.082 27.8 118.03 27.6641 118.03 27.5133V12.5749C118.03 12.4089 118.082 12.2731 118.188 12.1675C118.309 12.0619 118.445 12.0091 118.595 12.0091H121.493C121.659 12.0091 121.794 12.0619 121.9 12.1675C122.006 12.2731 122.058 12.4089 122.058 12.5749V17.6223C122.964 16.5962 124.156 16.0832 125.635 16.0832C126.51 16.0832 127.287 16.2793 127.966 16.6716C128.66 17.064 129.203 17.6449 129.595 18.4144C129.988 19.184 130.184 20.112 130.184 21.1984V27.5133C130.184 27.6641 130.131 27.8 130.026 27.9207C129.92 28.0263 129.784 28.0791 129.618 28.0791H126.698C126.547 28.0791 126.412 28.0263 126.291 27.9207C126.185 27.8 126.133 27.6641 126.133 27.5133V21.3342C126.133 20.625 125.959 20.0818 125.612 19.7046C125.28 19.3123 124.79 19.1161 124.141 19.1161C123.492 19.1161 122.979 19.3123 122.602 19.7046C122.239 20.0818 122.058 20.625 122.058 21.3342V27.5133C122.058 27.6792 122.006 27.815 121.9 27.9207C121.794 28.0263 121.659 28.0791 121.493 28.0791H118.595ZM138.183 28.3054C136.372 28.3054 134.946 27.815 133.905 26.8342C132.864 25.8534 132.32 24.4275 132.275 22.5564V21.7643C132.335 19.9837 132.886 18.5955 133.927 17.5996C134.984 16.5886 136.394 16.0832 138.16 16.0832C139.443 16.0832 140.521 16.3472 141.397 16.8753C142.287 17.3884 142.951 18.0976 143.388 19.0029C143.841 19.9083 144.067 20.9494 144.067 22.1264V22.6696C144.067 22.8205 144.015 22.9563 143.909 23.077C143.803 23.1826 143.668 23.2355 143.502 23.2355H136.259V23.3939C136.289 24.1031 136.462 24.6765 136.779 25.1141C137.096 25.5517 137.556 25.7704 138.16 25.7704C138.537 25.7704 138.846 25.695 139.088 25.5441C139.329 25.3781 139.548 25.182 139.744 24.9556C139.88 24.7896 139.986 24.6916 140.061 24.6614C140.152 24.6161 140.288 24.5935 140.469 24.5935H143.275C143.411 24.5935 143.524 24.6388 143.615 24.7293C143.72 24.8047 143.773 24.9104 143.773 25.0462C143.773 25.4385 143.547 25.8912 143.094 26.4042C142.657 26.9172 142.015 27.3624 141.17 27.7396C140.325 28.1168 139.329 28.3054 138.183 28.3054ZM140.084 20.9947V20.9494C140.084 20.2101 139.91 19.6291 139.563 19.2066C139.231 18.769 138.764 18.5502 138.16 18.5502C137.571 18.5502 137.104 18.769 136.757 19.2066C136.425 19.6291 136.259 20.2101 136.259 20.9494V20.9947H140.084ZM149.72 28.3054C148.92 28.3054 148.189 28.1545 147.525 27.8528C146.876 27.5359 146.363 27.1134 145.986 26.5853C145.623 26.0421 145.442 25.446 145.442 24.7972C145.442 23.756 145.865 22.9186 146.71 22.2848C147.57 21.6511 148.747 21.2135 150.241 20.9721L153.07 20.542V20.2252C153.07 19.6518 152.949 19.2293 152.708 18.9577C152.466 18.686 152.059 18.5502 151.486 18.5502C151.139 18.5502 150.852 18.6106 150.626 18.7313C150.399 18.852 150.165 19.018 149.924 19.2293C149.713 19.4103 149.554 19.531 149.449 19.5914C149.403 19.7121 149.32 19.7725 149.2 19.7725H146.733C146.582 19.7725 146.453 19.7272 146.348 19.6367C146.257 19.531 146.219 19.4103 146.235 19.2745C146.25 18.8671 146.446 18.4144 146.823 17.9165C147.215 17.4186 147.804 16.9885 148.588 16.6264C149.388 16.2642 150.369 16.0832 151.531 16.0832C153.387 16.0832 154.76 16.4981 155.65 17.328C156.541 18.1428 156.986 19.2443 156.986 20.6326V27.5133C156.986 27.6641 156.933 27.8 156.827 27.9207C156.722 28.0263 156.586 28.0791 156.42 28.0791H153.794C153.643 28.0791 153.508 28.0263 153.387 27.9207C153.281 27.8 153.228 27.6641 153.228 27.5133V26.7211C152.896 27.1888 152.429 27.5736 151.825 27.8754C151.237 28.1621 150.535 28.3054 149.72 28.3054ZM150.784 25.7252C151.478 25.7252 152.036 25.4988 152.459 25.0462C152.896 24.5935 153.115 23.9296 153.115 23.0544V22.7375L151.191 23.077C149.833 23.3184 149.154 23.7938 149.154 24.503C149.154 24.8802 149.313 25.182 149.63 25.4083C149.947 25.6196 150.331 25.7252 150.784 25.7252ZM160.106 28.0791C159.955 28.0791 159.819 28.0263 159.698 27.9207C159.593 27.8 159.54 27.6641 159.54 27.5133V12.5749C159.54 12.4089 159.593 12.2731 159.698 12.1675C159.819 12.0619 159.955 12.0091 160.106 12.0091H162.776C162.942 12.0091 163.078 12.0619 163.184 12.1675C163.289 12.2731 163.342 12.4089 163.342 12.5749V27.5133C163.342 27.6792 163.289 27.815 163.184 27.9207C163.078 28.0263 162.942 28.0791 162.776 28.0791H160.106ZM172.037 28.0791C168.913 28.0791 167.351 26.5928 167.351 23.6202V19.2745H165.586C165.42 19.2745 165.277 19.2217 165.156 19.1161C165.05 19.0105 164.998 18.8747 164.998 18.7087V16.8753C164.998 16.7094 165.05 16.5736 165.156 16.4679C165.277 16.3623 165.42 16.3095 165.586 16.3095H167.351V12.5749C167.351 12.4089 167.404 12.2731 167.51 12.1675C167.631 12.0619 167.766 12.0091 167.917 12.0091H170.543C170.709 12.0091 170.845 12.0619 170.95 12.1675C171.056 12.2731 171.109 12.4089 171.109 12.5749V16.3095H173.938C174.104 16.3095 174.24 16.3623 174.345 16.4679C174.466 16.5736 174.526 16.7094 174.526 16.8753V18.7087C174.526 18.8747 174.466 19.0105 174.345 19.1161C174.24 19.2217 174.104 19.2745 173.938 19.2745H171.109V23.3034C171.109 24.42 171.539 24.9783 172.399 24.9783H174.142C174.308 24.9783 174.443 25.0311 174.549 25.1367C174.655 25.2423 174.707 25.3781 174.707 25.5441V27.5133C174.707 27.6641 174.655 27.8 174.549 27.9207C174.443 28.0263 174.308 28.0791 174.142 28.0791H172.037ZM177.147 28.0791C176.996 28.0791 176.861 28.0263 176.74 27.9207C176.634 27.8 176.581 27.6641 176.581 27.5133V12.5749C176.581 12.4089 176.634 12.2731 176.74 12.1675C176.861 12.0619 176.996 12.0091 177.147 12.0091H180.044C180.21 12.0091 180.346 12.0619 180.452 12.1675C180.557 12.2731 180.61 12.4089 180.61 12.5749V17.6223C181.516 16.5962 182.708 16.0832 184.186 16.0832C185.062 16.0832 185.839 16.2793 186.518 16.6716C187.212 17.064 187.755 17.6449 188.147 18.4144C188.54 19.184 188.736 20.112 188.736 21.1984V27.5133C188.736 27.6641 188.683 27.8 188.577 27.9207C188.472 28.0263 188.336 28.0791 188.17 28.0791H185.25C185.099 28.0791 184.964 28.0263 184.843 27.9207C184.737 27.8 184.684 27.6641 184.684 27.5133V21.3342C184.684 20.625 184.511 20.0818 184.164 19.7046C183.832 19.3123 183.341 19.1161 182.693 19.1161C182.044 19.1161 181.531 19.3123 181.153 19.7046C180.791 20.0818 180.61 20.625 180.61 21.3342V27.5133C180.61 27.6792 180.557 27.815 180.452 27.9207C180.346 28.0263 180.21 28.0791 180.044 28.0791H177.147ZM193.078 32.3795C192.942 32.3795 192.829 32.3343 192.738 32.2437C192.648 32.1532 192.603 32.04 192.603 31.9042C192.603 31.7986 192.625 31.7005 192.67 31.61L194.436 27.3548L190.09 17.079C190.045 16.9583 190.022 16.8678 190.022 16.8074C190.052 16.6716 190.113 16.5585 190.203 16.4679C190.294 16.3623 190.407 16.3095 190.543 16.3095H193.123C193.44 16.3095 193.659 16.4679 193.779 16.7848L196.36 23.3713L199.008 16.7848C199.159 16.4679 199.385 16.3095 199.687 16.3095H202.222C202.358 16.3095 202.471 16.3623 202.561 16.4679C202.667 16.5585 202.72 16.6641 202.72 16.7848C202.72 16.8452 202.697 16.9432 202.652 17.079L196.247 31.9042C196.126 32.2211 195.9 32.3795 195.568 32.3795H193.078ZM213.475 28.3054C212.253 28.3054 211.227 28.1319 210.397 27.7849C209.582 27.4378 208.978 27.0229 208.586 26.54C208.194 26.0571 207.998 25.6271 207.998 25.2499C207.998 25.099 208.05 24.9783 208.156 24.8877C208.277 24.7821 208.405 24.7293 208.541 24.7293H211.121C211.212 24.7293 211.295 24.767 211.37 24.8425C211.551 24.9632 211.687 25.0613 211.777 25.1367C212.109 25.3781 212.396 25.5592 212.638 25.6799C212.894 25.7855 213.203 25.8383 213.566 25.8383C214.003 25.8383 214.358 25.7554 214.629 25.5894C214.916 25.4083 215.059 25.1593 215.059 24.8425C215.059 24.5859 214.984 24.3822 214.833 24.2313C214.697 24.0805 214.426 23.9371 214.018 23.8013C213.611 23.6504 212.992 23.492 212.162 23.326C210.91 23.0695 209.944 22.6545 209.265 22.0811C208.601 21.4926 208.269 20.708 208.269 19.7272C208.269 19.1085 208.465 18.5201 208.858 17.9618C209.25 17.4035 209.831 16.9508 210.6 16.6037C211.385 16.2567 212.313 16.0832 213.384 16.0832C214.456 16.0832 215.391 16.2491 216.191 16.5811C216.991 16.9131 217.594 17.3205 218.002 17.8033C218.424 18.2711 218.636 18.7011 218.636 19.0935C218.636 19.2293 218.583 19.35 218.477 19.4556C218.387 19.5612 218.273 19.614 218.138 19.614H215.784C215.663 19.614 215.55 19.5763 215.444 19.5009C215.248 19.3952 215.074 19.2821 214.924 19.1614C214.667 18.9652 214.426 18.8143 214.199 18.7087C213.973 18.6031 213.694 18.5502 213.362 18.5502C212.97 18.5502 212.653 18.6408 212.411 18.8219C212.185 19.0029 212.072 19.2368 212.072 19.5235C212.072 19.7498 212.132 19.9385 212.253 20.0893C212.389 20.2402 212.66 20.3911 213.068 20.542C213.49 20.6778 214.109 20.8212 214.924 20.9721C216.387 21.2286 217.451 21.6813 218.115 22.3301C218.794 22.9789 219.133 23.7409 219.133 24.6161C219.133 25.7327 218.636 26.6305 217.64 27.3096C216.644 27.9735 215.256 28.3054 213.475 28.3054ZM227.096 28.0791C223.973 28.0791 222.411 26.5928 222.411 23.6202V19.2745H220.646C220.48 19.2745 220.336 19.2217 220.215 19.1161C220.11 19.0105 220.057 18.8747 220.057 18.7087V16.8753C220.057 16.7094 220.11 16.5736 220.215 16.4679C220.336 16.3623 220.48 16.3095 220.646 16.3095H222.411V12.5749C222.411 12.4089 222.464 12.2731 222.569 12.1675C222.69 12.0619 222.826 12.0091 222.977 12.0091H225.602C225.768 12.0091 225.904 12.0619 226.01 12.1675C226.115 12.2731 226.168 12.4089 226.168 12.5749V16.3095H228.997C229.163 16.3095 229.299 16.3623 229.405 16.4679C229.526 16.5736 229.586 16.7094 229.586 16.8753V18.7087C229.586 18.8747 229.526 19.0105 229.405 19.1161C229.299 19.2217 229.163 19.2745 228.997 19.2745H226.168V23.3034C226.168 24.42 226.598 24.9783 227.458 24.9783H229.201C229.367 24.9783 229.503 25.0311 229.609 25.1367C229.714 25.2423 229.767 25.3781 229.767 25.5441V27.5133C229.767 27.6641 229.714 27.8 229.609 27.9207C229.503 28.0263 229.367 28.0791 229.201 28.0791H227.096ZM233.836 32.3795C233.701 32.3795 233.587 32.3343 233.497 32.2437C233.406 32.1532 233.361 32.04 233.361 31.9042C233.361 31.7986 233.384 31.7005 233.429 31.61L235.194 27.3548L230.849 17.079C230.804 16.9583 230.781 16.8678 230.781 16.8074C230.811 16.6716 230.871 16.5585 230.962 16.4679C231.052 16.3623 231.166 16.3095 231.301 16.3095H233.882C234.199 16.3095 234.417 16.4679 234.538 16.7848L237.118 23.3713L239.767 16.7848C239.917 16.4679 240.144 16.3095 240.446 16.3095H242.981C243.116 16.3095 243.23 16.3623 243.32 16.4679C243.426 16.5585 243.478 16.6641 243.478 16.7848C243.478 16.8452 243.456 16.9432 243.411 17.079L237.005 31.9042C236.884 32.2211 236.658 32.3795 236.326 32.3795H233.836ZM245.712 28.0791C245.561 28.0791 245.425 28.0263 245.305 27.9207C245.199 27.8 245.146 27.6641 245.146 27.5133V12.5749C245.146 12.4089 245.199 12.2731 245.305 12.1675C245.425 12.0619 245.561 12.0091 245.712 12.0091H248.383C248.549 12.0091 248.685 12.0619 248.79 12.1675C248.896 12.2731 248.949 12.4089 248.949 12.5749V27.5133C248.949 27.6792 248.896 27.815 248.79 27.9207C248.685 28.0263 248.549 28.0791 248.383 28.0791H245.712ZM257.055 28.3054C255.244 28.3054 253.818 27.815 252.777 26.8342C251.736 25.8534 251.192 24.4275 251.147 22.5564V21.7643C251.207 19.9837 251.758 18.5955 252.799 17.5996C253.856 16.5886 255.266 16.0832 257.032 16.0832C258.315 16.0832 259.393 16.3472 260.269 16.8753C261.159 17.3884 261.823 18.0976 262.26 19.0029C262.713 19.9083 262.939 20.9494 262.939 22.1264V22.6696C262.939 22.8205 262.887 22.9563 262.781 23.077C262.675 23.1826 262.539 23.2355 262.374 23.2355H255.131V23.3939C255.161 24.1031 255.334 24.6765 255.651 25.1141C255.968 25.5517 256.428 25.7704 257.032 25.7704C257.409 25.7704 257.718 25.695 257.96 25.5441C258.201 25.3781 258.42 25.182 258.616 24.9556C258.752 24.7896 258.858 24.6916 258.933 24.6614C259.024 24.6161 259.16 24.5935 259.341 24.5935H262.147C262.283 24.5935 262.396 24.6388 262.487 24.7293C262.592 24.8047 262.645 24.9104 262.645 25.0462C262.645 25.4385 262.419 25.8912 261.966 26.4042C261.529 26.9172 260.887 27.3624 260.042 27.7396C259.197 28.1168 258.201 28.3054 257.055 28.3054ZM258.956 20.9947V20.9494C258.956 20.2101 258.782 19.6291 258.435 19.2066C258.103 18.769 257.635 18.5502 257.032 18.5502C256.443 18.5502 255.976 18.769 255.629 19.2066C255.297 19.6291 255.131 20.2101 255.131 20.9494V20.9947H258.956Z" fill="#64BA92"/>
<path d="M86.4584 50.4042C85.3515 50.4042 84.5112 50.0199 83.9373 49.2513V49.8969C83.9373 49.9994 83.9014 50.0865 83.8297 50.1583C83.7682 50.2197 83.6862 50.2505 83.5837 50.2505H82.8766C82.7741 50.2505 82.687 50.2197 82.6152 50.1583C82.5537 50.0865 82.523 49.9994 82.523 49.8969V39.6895C82.523 39.587 82.5537 39.5051 82.6152 39.4436C82.687 39.3718 82.7741 39.336 82.8766 39.336H83.6298C83.7323 39.336 83.8143 39.3718 83.8758 39.4436C83.9373 39.5051 83.968 39.587 83.968 39.6895V43.2252C84.5727 42.4771 85.4028 42.103 86.4584 42.103C87.5242 42.103 88.3287 42.4566 88.8719 43.1637C89.415 43.8606 89.7071 44.7369 89.7481 45.7924C89.7583 45.9052 89.7635 46.0589 89.7635 46.2536C89.7635 46.4483 89.7583 46.6021 89.7481 46.7148C89.7071 47.7806 89.415 48.662 88.8719 49.3589C88.3287 50.0558 87.5242 50.4042 86.4584 50.4042ZM86.1355 49.159C86.8632 49.159 87.391 48.9336 87.7189 48.4826C88.0571 48.0317 88.2416 47.4373 88.2723 46.6994C88.2826 46.5969 88.2877 46.4483 88.2877 46.2536C88.2877 44.3167 87.5703 43.3482 86.1355 43.3482C85.4489 43.3482 84.9211 43.5737 84.5522 44.0246C84.1832 44.4755 83.9885 45.0033 83.968 45.608L83.9526 46.2075L83.968 46.7917C83.9988 47.4373 84.1883 47.9958 84.5368 48.4673C84.8955 48.9284 85.4284 49.159 86.1355 49.159ZM92.7487 53.1713C92.6668 53.1713 92.595 53.1405 92.5335 53.079C92.472 53.0176 92.4413 52.9458 92.4413 52.8638C92.4413 52.7921 92.4669 52.6999 92.5182 52.5871L93.7018 49.7739L90.7657 42.8409C90.7144 42.7077 90.6888 42.6206 90.6888 42.5796C90.6888 42.4873 90.7196 42.4105 90.7811 42.349C90.8425 42.2875 90.9194 42.2568 91.0116 42.2568H91.7649C91.9289 42.2568 92.0519 42.3439 92.1338 42.5181L94.4705 48.1137L96.8686 42.5181C96.9506 42.3439 97.0787 42.2568 97.2529 42.2568H97.9754C98.0677 42.2568 98.1445 42.2875 98.206 42.349C98.2675 42.4105 98.2982 42.4822 98.2982 42.5642C98.2982 42.5949 98.2726 42.6872 98.2214 42.8409L93.8556 52.9099C93.7736 53.0842 93.6455 53.1713 93.4713 53.1713H92.7487ZM103.748 50.2505C103.645 50.2505 103.558 50.2197 103.487 50.1583C103.425 50.0865 103.394 49.9994 103.394 49.8969V39.8586C103.394 39.7459 103.425 39.6588 103.487 39.5973C103.558 39.5256 103.645 39.4897 103.748 39.4897H107.499C108.677 39.4897 109.6 39.7664 110.266 40.3198C110.932 40.8732 111.265 41.6726 111.265 42.7179C111.265 43.4968 111.07 44.1373 110.681 44.6395C110.302 45.1417 109.764 45.4901 109.067 45.6848L111.434 49.7739C111.465 49.8354 111.48 49.8918 111.48 49.943C111.48 50.025 111.444 50.0968 111.373 50.1583C111.311 50.2197 111.24 50.2505 111.158 50.2505H110.42C110.266 50.2505 110.143 50.2146 110.051 50.1429C109.969 50.0711 109.892 49.9687 109.82 49.8354L107.591 45.9308H104.901V49.8969C104.901 49.9994 104.865 50.0865 104.793 50.1583C104.722 50.2197 104.634 50.2505 104.532 50.2505H103.748ZM107.437 44.6241C108.964 44.6241 109.728 43.9836 109.728 42.7026C109.728 41.4215 108.964 40.781 107.437 40.781H104.901V44.6241H107.437ZM116.452 50.4042C115.325 50.4042 114.448 50.0865 113.823 49.4511C113.208 48.8157 112.88 47.9702 112.839 46.9146L112.824 46.2536L112.839 45.5926C112.88 44.5473 113.214 43.7069 113.839 43.0715C114.464 42.4258 115.335 42.103 116.452 42.103C117.569 42.103 118.44 42.4258 119.065 43.0715C119.691 43.7069 120.024 44.5473 120.065 45.5926C120.075 45.7053 120.08 45.9257 120.08 46.2536C120.08 46.5816 120.075 46.8019 120.065 46.9146C120.024 47.9702 119.691 48.8157 119.065 49.4511C118.45 50.0865 117.579 50.4042 116.452 50.4042ZM116.452 49.2205C117.098 49.2205 117.605 49.0156 117.974 48.6056C118.353 48.1957 118.558 47.6064 118.589 46.8378C118.599 46.7353 118.604 46.5406 118.604 46.2536C118.604 45.9667 118.599 45.7719 118.589 45.6695C118.558 44.9008 118.353 44.3116 117.974 43.9016C117.605 43.4917 117.098 43.2867 116.452 43.2867C115.806 43.2867 115.294 43.4917 114.915 43.9016C114.536 44.3116 114.336 44.9008 114.315 45.6695L114.3 46.2536L114.315 46.8378C114.336 47.6064 114.536 48.1957 114.915 48.6056C115.294 49.0156 115.806 49.2205 116.452 49.2205ZM121.761 50.2505C121.659 50.2505 121.572 50.2197 121.5 50.1583C121.438 50.0865 121.408 49.9994 121.408 49.8969V49.3589C121.408 49.2769 121.428 49.1949 121.469 49.1129C121.52 49.0207 121.572 48.9387 121.623 48.867L125.866 43.4712H121.899C121.797 43.4712 121.71 43.4404 121.638 43.3789C121.577 43.3072 121.546 43.2201 121.546 43.1176V42.6103C121.546 42.5078 121.577 42.4258 121.638 42.3644C121.71 42.2926 121.797 42.2568 121.899 42.2568H127.372C127.475 42.2568 127.557 42.2926 127.618 42.3644C127.69 42.4258 127.726 42.5078 127.726 42.6103V43.1791C127.726 43.2611 127.7 43.3431 127.649 43.4251C127.608 43.5071 127.562 43.5839 127.51 43.6557L123.314 49.0361H127.68C127.792 49.0361 127.879 49.0668 127.941 49.1283C128.002 49.1898 128.033 49.2769 128.033 49.3896V49.8969C128.033 49.9994 127.997 50.0865 127.926 50.1583C127.864 50.2197 127.782 50.2505 127.68 50.2505H121.761ZM130.105 50.2505C130.003 50.2505 129.916 50.2197 129.844 50.1583C129.782 50.0865 129.752 49.9994 129.752 49.8969V39.6895C129.752 39.587 129.782 39.5051 129.844 39.4436C129.916 39.3718 130.003 39.336 130.105 39.336H130.874C130.976 39.336 131.058 39.3718 131.12 39.4436C131.192 39.5051 131.227 39.587 131.227 39.6895V43.2713C131.525 42.8922 131.873 42.6052 132.273 42.4105C132.672 42.2055 133.169 42.103 133.764 42.103C134.748 42.103 135.511 42.4207 136.054 43.0561C136.608 43.6813 136.884 44.5165 136.884 45.5619V49.8969C136.884 49.9994 136.849 50.0865 136.777 50.1583C136.715 50.2197 136.633 50.2505 136.531 50.2505H135.762C135.66 50.2505 135.573 50.2197 135.501 50.1583C135.439 50.0865 135.409 49.9994 135.409 49.8969V45.6387C135.409 44.9111 135.229 44.3474 134.871 43.9477C134.522 43.548 134.015 43.3482 133.349 43.3482C132.703 43.3482 132.186 43.5532 131.796 43.9631C131.417 44.3628 131.227 44.9213 131.227 45.6387V49.8969C131.227 49.9994 131.192 50.0865 131.12 50.1583C131.058 50.2197 130.976 50.2505 130.874 50.2505H130.105ZM142.301 50.4042C141.246 50.4042 140.4 50.0814 139.765 49.4357C139.14 48.7798 138.796 47.8882 138.735 46.7609L138.72 46.2382L138.735 45.731C138.807 44.6241 139.155 43.7428 139.78 43.0869C140.416 42.431 141.251 42.103 142.286 42.103C143.424 42.103 144.305 42.4668 144.93 43.1945C145.555 43.9119 145.868 44.8855 145.868 46.1153V46.3766C145.868 46.4791 145.832 46.5662 145.76 46.6379C145.699 46.6994 145.617 46.7302 145.514 46.7302H140.195V46.8685C140.226 47.5347 140.426 48.1035 140.795 48.5749C141.174 49.0361 141.671 49.2666 142.286 49.2666C142.757 49.2666 143.142 49.1744 143.439 48.9899C143.746 48.7952 143.972 48.5954 144.115 48.3904C144.208 48.2674 144.274 48.1957 144.315 48.1752C144.366 48.1444 144.454 48.1291 144.577 48.1291H145.33C145.422 48.1291 145.499 48.1547 145.56 48.2059C145.622 48.2572 145.653 48.3289 145.653 48.4212C145.653 48.6466 145.509 48.9182 145.222 49.2359C144.945 49.5536 144.551 49.8303 144.038 50.066C143.536 50.2915 142.957 50.4042 142.301 50.4042ZM144.407 45.6695V45.6233C144.407 44.9162 144.213 44.3423 143.823 43.9016C143.444 43.4507 142.932 43.2252 142.286 43.2252C141.64 43.2252 141.128 43.4507 140.749 43.9016C140.38 44.3423 140.195 44.9162 140.195 45.6233V45.6695H144.407ZM148.059 50.2505C147.957 50.2505 147.87 50.2197 147.798 50.1583C147.737 50.0865 147.706 49.9994 147.706 49.8969V42.6103C147.706 42.5078 147.737 42.4258 147.798 42.3644C147.87 42.2926 147.957 42.2568 148.059 42.2568H148.782C148.884 42.2568 148.966 42.2926 149.028 42.3644C149.1 42.4258 149.136 42.5078 149.136 42.6103V43.2867C149.433 42.9075 149.781 42.6154 150.181 42.4105C150.591 42.2055 151.098 42.103 151.703 42.103C152.687 42.103 153.45 42.4207 153.993 43.0561C154.547 43.6813 154.823 44.5165 154.823 45.5619V49.8969C154.823 49.9994 154.788 50.0865 154.716 50.1583C154.654 50.2197 154.572 50.2505 154.47 50.2505H153.701C153.599 50.2505 153.512 50.2197 153.44 50.1583C153.378 50.0865 153.348 49.9994 153.348 49.8969V45.6387C153.348 44.9111 153.168 44.3474 152.81 43.9477C152.461 43.548 151.954 43.3482 151.288 43.3482C150.642 43.3482 150.13 43.5532 149.75 43.9631C149.371 44.3628 149.182 44.9213 149.182 45.6387V49.8969C149.182 49.9994 149.146 50.0865 149.074 50.1583C149.013 50.2197 148.931 50.2505 148.828 50.2505H148.059ZM160.044 50.2505C158.425 50.2505 157.615 49.3486 157.615 47.5449V43.4866H156.416C156.314 43.4866 156.227 43.4558 156.155 43.3943C156.093 43.3226 156.063 43.2355 156.063 43.133V42.6103C156.063 42.5078 156.093 42.4258 156.155 42.3644C156.227 42.2926 156.314 42.2568 156.416 42.2568H157.615V39.6895C157.615 39.587 157.646 39.5051 157.707 39.4436C157.779 39.3718 157.866 39.336 157.969 39.336H158.691C158.794 39.336 158.876 39.3718 158.937 39.4436C159.009 39.5051 159.045 39.587 159.045 39.6895V42.2568H160.951C161.054 42.2568 161.136 42.2926 161.197 42.3644C161.269 42.4258 161.305 42.5078 161.305 42.6103V43.133C161.305 43.2355 161.269 43.3226 161.197 43.3943C161.136 43.4558 161.054 43.4866 160.951 43.4866H159.045V47.4373C159.045 47.9497 159.132 48.3392 159.306 48.6056C159.48 48.8618 159.767 48.9899 160.167 48.9899H161.105C161.207 48.9899 161.289 49.0258 161.351 49.0975C161.423 49.159 161.458 49.241 161.458 49.3435V49.8969C161.458 49.9994 161.423 50.0865 161.351 50.1583C161.289 50.2197 161.207 50.2505 161.105 50.2505H160.044ZM165.695 50.4042C164.978 50.4042 164.373 50.2915 163.881 50.066C163.4 49.8303 163.036 49.5638 162.79 49.2666C162.554 48.9694 162.436 48.7235 162.436 48.5288C162.436 48.4263 162.472 48.3494 162.544 48.2982C162.626 48.2367 162.708 48.2059 162.79 48.2059H163.482C163.584 48.2059 163.677 48.2572 163.758 48.3597C164.004 48.6466 164.271 48.8721 164.558 49.0361C164.845 49.2 165.229 49.282 165.711 49.282C166.244 49.282 166.674 49.1795 167.002 48.9746C167.34 48.7593 167.509 48.4673 167.509 48.0983C167.509 47.8524 167.438 47.6525 167.294 47.4988C167.161 47.3348 166.925 47.1965 166.587 47.0837C166.259 46.9608 165.767 46.8275 165.111 46.6841C164.22 46.4893 163.584 46.2075 163.205 45.8386C162.836 45.4696 162.652 44.9931 162.652 44.4089C162.652 44.0195 162.764 43.6505 162.99 43.3021C163.226 42.9434 163.564 42.6564 164.004 42.4412C164.455 42.2158 164.993 42.103 165.619 42.103C166.274 42.103 166.833 42.2106 167.294 42.4258C167.755 42.6411 168.099 42.8973 168.324 43.1945C168.56 43.4814 168.678 43.7223 168.678 43.917C168.678 44.0092 168.642 44.0861 168.57 44.1476C168.509 44.2091 168.432 44.2398 168.34 44.2398H167.694C167.571 44.2398 167.468 44.1886 167.386 44.0861C167.222 43.8914 167.079 43.7428 166.956 43.6403C166.843 43.5275 166.674 43.4302 166.449 43.3482C166.233 43.2662 165.957 43.2252 165.619 43.2252C165.127 43.2252 164.747 43.3328 164.481 43.548C164.215 43.753 164.081 44.0246 164.081 44.3628C164.081 44.578 164.138 44.7625 164.25 44.9162C164.363 45.0597 164.578 45.1929 164.896 45.3159C165.224 45.4389 165.695 45.567 166.31 45.7002C167.284 45.9052 167.971 46.2024 168.37 46.5918C168.78 46.971 168.985 47.4578 168.985 48.0522C168.985 48.4929 168.857 48.8926 168.601 49.2513C168.345 49.61 167.965 49.8918 167.463 50.0968C166.971 50.3017 166.382 50.4042 165.695 50.4042ZM173.962 50.4042C172.907 50.4042 172.061 50.0814 171.426 49.4357C170.801 48.7798 170.457 47.8882 170.396 46.7609L170.38 46.2382L170.396 45.731C170.468 44.6241 170.816 43.7428 171.441 43.0869C172.077 42.431 172.912 42.103 173.947 42.103C175.084 42.103 175.966 42.4668 176.591 43.1945C177.216 43.9119 177.529 44.8855 177.529 46.1153V46.3766C177.529 46.4791 177.493 46.5662 177.421 46.6379C177.36 46.6994 177.278 46.7302 177.175 46.7302H171.856V46.8685C171.887 47.5347 172.087 48.1035 172.456 48.5749C172.835 49.0361 173.332 49.2666 173.947 49.2666C174.418 49.2666 174.803 49.1744 175.1 48.9899C175.407 48.7952 175.633 48.5954 175.776 48.3904C175.868 48.2674 175.935 48.1957 175.976 48.1752C176.027 48.1444 176.114 48.1291 176.237 48.1291H176.991C177.083 48.1291 177.16 48.1547 177.221 48.2059C177.283 48.2572 177.314 48.3289 177.314 48.4212C177.314 48.6466 177.17 48.9182 176.883 49.2359C176.606 49.5536 176.212 49.8303 175.699 50.066C175.197 50.2915 174.618 50.4042 173.962 50.4042ZM176.068 45.6695V45.6233C176.068 44.9162 175.874 44.3423 175.484 43.9016C175.105 43.4507 174.593 43.2252 173.947 43.2252C173.301 43.2252 172.789 43.4507 172.41 43.9016C172.041 44.3423 171.856 44.9162 171.856 45.6233V45.6695H176.068ZM181.879 50.2505C181.613 50.2505 181.423 50.1224 181.31 49.8662L178.466 42.7333L178.436 42.5796C178.436 42.4873 178.466 42.4105 178.528 42.349C178.589 42.2875 178.666 42.2568 178.758 42.2568H179.496C179.671 42.2568 179.799 42.3439 179.881 42.5181L182.217 48.5749L184.554 42.5181C184.646 42.3439 184.769 42.2568 184.923 42.2568H185.676C185.758 42.2568 185.83 42.2875 185.891 42.349C185.963 42.4105 185.999 42.4873 185.999 42.5796L185.968 42.7333L183.109 49.8662C182.996 50.1224 182.807 50.2505 182.54 50.2505H181.879ZM189.537 50.4042C189.035 50.4042 188.569 50.3017 188.138 50.0968C187.708 49.8918 187.365 49.6151 187.108 49.2666C186.863 48.908 186.74 48.5134 186.74 48.083C186.74 47.4066 187.016 46.8531 187.57 46.4227C188.133 45.982 188.892 45.6951 189.845 45.5619L192.135 45.239V44.7932C192.135 43.7479 191.536 43.2252 190.337 43.2252C189.886 43.2252 189.517 43.3226 189.23 43.5173C188.943 43.7018 188.728 43.9221 188.584 44.1783C188.553 44.2706 188.513 44.3372 188.461 44.3782C188.42 44.4192 188.359 44.4397 188.277 44.4397H187.616C187.524 44.4397 187.442 44.4089 187.37 44.3474C187.308 44.2757 187.278 44.1937 187.278 44.1015C187.288 43.8555 187.401 43.5788 187.616 43.2713C187.841 42.9536 188.185 42.6821 188.646 42.4566C189.107 42.2209 189.676 42.103 190.352 42.103C191.5 42.103 192.325 42.3746 192.827 42.9178C193.329 43.4507 193.58 44.1168 193.58 44.9162V49.8969C193.58 49.9994 193.544 50.0865 193.473 50.1583C193.411 50.2197 193.329 50.2505 193.227 50.2505H192.52C192.417 50.2505 192.33 50.2197 192.258 50.1583C192.197 50.0865 192.166 49.9994 192.166 49.8969V49.2359C191.941 49.5638 191.613 49.8406 191.182 50.066C190.752 50.2915 190.203 50.4042 189.537 50.4042ZM189.86 49.2513C190.526 49.2513 191.069 49.0361 191.49 48.6056C191.92 48.1649 192.135 47.5347 192.135 46.7148V46.2844L190.352 46.5457C189.624 46.6482 189.076 46.8224 188.707 47.0684C188.338 47.3041 188.154 47.6064 188.154 47.9753C188.154 48.3853 188.323 48.703 188.661 48.9284C188.999 49.1437 189.399 49.2513 189.86 49.2513Z" fill="#8F8F8F"/>
</svg>
